HIERARCHY
ROOT pelvis
{
  OFFSET 0 100 0
  CHANNELS 6 Xposition Yposition Zposition Zrotation Xrotation Yrotation
  JOINT pelvis_right_femur
  {
    OFFSET -10.78128 -3.44521 -0.5502486
    CHANNELS 3 Zrotation Xrotation Yrotation
    JOINT right_femur_tibia
    {
      OFFSET -0.8047443 -44.0398 -0.1307829
      CHANNELS 3 Zrotation Xrotation Yrotation
      JOINT right_tibia_foot
      {
        OFFSET 3.006224 -47.83518 -5
        CHANNELS 3 Zrotation Xrotation Yrotation
        End Site
        {
          OFFSET 0 -5 15
        }
      }
    }
  }
  JOINT pelvis_left_femur
  {
    OFFSET 10.78128 -3.44521 -0.5502486
    CHANNELS 3 Zrotation Xrotation Yrotation
    JOINT left_femur_tibia
    {
      OFFSET 0.8047443 -44.0398 -0.1307829
      CHANNELS 3 Zrotation Xrotation Yrotation
      JOINT left_tibia_foot
      {
        OFFSET -4.370144 -48.10324 -4.275266
        CHANNELS 3 Zrotation Xrotation Yrotation
        End Site
        {
          OFFSET 0 -5 15
        }
      }
    }
  }
  JOINT pelvis_spine1
  {
    OFFSET 0 6.468898 -3.129235
    CHANNELS 3 Zrotation Xrotation Yrotation
    JOINT spine1
    {
      OFFSET 0 23.15396 4.99043
      CHANNELS 3 Zrotation Xrotation Yrotation
      JOINT spine2
      {
        OFFSET 0 20.79997 -5.064912
        CHANNELS 3 Zrotation Xrotation Yrotation
        JOINT neck
        {
          OFFSET 0 14.38658 9.616178
          CHANNELS 3 Zrotation Xrotation Yrotation
          End Site
          {
            OFFSET 0 20 0
          }
        }
      }
      JOINT right_manubrium
      {
        OFFSET -5.722621 16.35077 3.967754
        CHANNELS 3 Zrotation Xrotation Yrotation
        JOINT right_clavicle
        {
          OFFSET -13.16364 1.694482 -4.693211
          CHANNELS 3 Zrotation Xrotation Yrotation
          JOINT right_humerus
          {
            OFFSET -28.5034 -0.3100689 -2.792744
            CHANNELS 3 Zrotation Xrotation Yrotation
            JOINT right_radius
            {
              OFFSET -25.15693 0.02248979 -1.271978
              CHANNELS 3 Zrotation Xrotation Yrotation
              End Site
              {
                OFFSET -15 0 0
              }
            }
          }
        }
      }
      JOINT left_manubrium
      {
        OFFSET 5.722621 16.35077 3.967754
        CHANNELS 3 Zrotation Xrotation Yrotation
        JOINT left_clavicle
        {
          OFFSET 13.16364 1.694482 -4.693211
          CHANNELS 3 Zrotation Xrotation Yrotation
          JOINT left_humerus
          {
            OFFSET 29.39168 -1.063119 -2.237045
            CHANNELS 3 Zrotation Xrotation Yrotation
            JOINT left_radius
            {
              OFFSET 24.59957 -0.9528479 0.9047498
              CHANNELS 3 Zrotation Xrotation Yrotation
              End Site
              {
                OFFSET 15 -0 -0
              }
            }
          }
        }
      }
    }
  }
}
MOTION
Frames: 13
Frame Time: 0.0416666666667
0 103.5113 0 2.175654 -1.184244 0.2698732 1.248429 -10.10846 8.714003 -0 34.35683 -0 -5.263852 -17.9404 -2.310145 -8.026414 10.08028 -23.48517 -0 5.141602 -0 7.681916 -16.15327 26.57474 -4.340714 -5.051348 4.954967 2.029507 9.207885 -7.742585 0.8410014 22.81366 7.168099 3.247195 -23.1108 8.812497 6.373206 -19.75844 11.57785 86.29848 35.94451 -19.78554 -0 0 16.25463 -7.580824 8.241657 4.615582 5.513908 -19.48806 -1.681959 -94.79238 29.73728 22.93041 0 0 -15.99277 3.502445 17.91095 9.548848
0.3376342 103.5408 1.377704 2.014518 -1.028733 0.4254067 1.514301 -11.13771 8.558138 -0 33.56898 -0 -5.29689 -17.48551 -2.190691 -7.87079 10.18506 -23.31639 -0 5.205527 -0 7.545516 -16.42961 26.39404 -4.28572 -4.858546 4.910867 2.140309 9.161473 -7.754968 0.8788272 22.70627 7.171943 3.268838 -23.26013 8.848777 6.354026 -19.69779 11.58347 86.25943 35.91769 -19.82431 -0 0 16.15423 -7.62919 8.271991 4.633694 5.624451 -19.54973 -1.654659 -94.70516 29.67736 22.7669 0 0 -16.29592 3.566522 17.83706 9.491814
0.6903508 103.4918 2.872674 1.806441 -0.7691585 0.4921796 1.831914 -12.578 8.278309 -0 31.74035 -0 -5.321651 -16.72215 -1.863046 -7.681265 10.31419 -23.03165 -0 5.339621 -0 7.331967 -16.84676 26.1003 -4.230561 -4.601468 4.888015 2.309103 9.087153 -7.746656 0.9457802 22.53655 7.169714 3.311726 -23.46297 8.892938 6.308908 -19.58781 11.59336 86.21375 35.87618 -19.89813 -0 0 15.98881 -7.701846 8.319626 4.657172 5.816831 -19.65262 -1.605532 -94.55895 29.58967 22.46999 0 0 -16.79777 3.667506 17.73106 9.385047
1.068745 103.3189 4.536986 1.591808 -0.3775821 0.4682015 2.120019 -14.31862 7.839631 -0 28.41973 -0 -5.322638 -15.57371 -1.241289 -7.507867 10.45759 -22.6027 -0 5.591459 -0 7.029394 -17.41084 25.66075 -4.194667 -4.316844 4.917782 2.523269 8.984662 -7.694576 1.048859 22.30815 7.155334 3.382423 -23.69322 8.93752 6.220436 -19.4063 11.60425 86.18539 35.81948 -20.02524 -0 0 15.74286 -7.797778 8.387761 4.684119 6.103038 -19.80861 -1.526457 -94.3377 29.47829 22.00404 0 0 -17.51588 3.802054 17.59493 9.219091
1.480718 102.9842 6.427132 1.403635 0.1474633 0.3764569 2.327042 -16.19993 7.234712 -0 23.59309 -0 -5.308131 -14.07088 -0.3399103 -7.382355 10.61994 -22.01901 -0 6.013986 -0 6.618426 -18.09487 25.04293 -4.181199 -4.045337 4.995514 2.754902 8.860084 -7.604854 1.175187 22.04521 7.133646 3.476186 -23.91642 8.974751 6.084246 -19.15119 11.60485 86.20322 35.74987 -20.21337 -0 0 15.41168 -7.912937 8.480469 4.715666 6.462745 -20.01538 -1.421838 -94.03769 29.34709 21.3823 0 0 -18.39355 3.955524 17.42997 9.010638
1.925819 102.4773 8.607384 1.269409 0.7824678 0.2710276 2.433552 -17.97832 6.48227 -0 17.68404 -0 -5.301907 -12.36374 0.7278565 -7.319386 10.82289 -21.28109 -0 6.69125 -0 6.060601 -18.82808 24.19996 -4.17378 -3.83958 5.075125 2.955847 8.725453 -7.518468 1.287469 21.79704 7.122388 3.575319 -24.08306 8.993995 5.909445 -18.83972 11.57233 86.30855 35.67322 -20.46297 -0 0 14.99704 -8.03987 8.604728 4.756578 6.83644 -20.25489 -1.312044 -93.66459 29.20049 20.66959 0 0 -19.28412 4.098923 17.2358 8.80772
2.396017 101.821 11.14545 1.18865 1.492384 0.2249419 2.454248 -19.42091 5.625175 -0 11.30682 -0 -5.335997 -10.63154 1.831042 -7.301121 11.07064 -20.39963 -0 7.727623 -0 5.308583 -19.49851 23.09404 -4.139281 -3.734475 5.109498 3.093549 8.588821 -7.477267 1.354215 21.59757 7.134818 3.662776 -24.16362 8.985994 5.713915 -18.48814 11.49476 86.5271 35.59489 -20.77189 -0 0 14.5041 -8.174321 8.766472 4.811905 7.156339 -20.5001 -1.221573 -93.23832 29.03947 19.94534 0 0 -20.03963 4.206361 17.01116 8.655596
2.876084 101.0839 14.10678 1.110178 2.227544 0.3132119 2.453779 -20.27664 4.752792 -0 5.358496 -0 -5.466431 -9.092392 2.823924 -7.247112 11.3239 -19.39478 -0 9.314228 -0 4.287285 -19.89507 21.69187 -4.009983 -3.737206 5.059357 3.167428 8.449129 -7.517286 1.358626 21.44559 7.172979 3.725555 -24.16582 8.94205 5.5291 -18.09995 11.38421 86.85953 35.5198 -21.14124 -0 0 13.93657 -8.319989 8.971734 4.887233 7.337741 -20.70641 -1.181759 -92.8064 28.85813 19.31051 0 0 -20.51259 4.256859 16.75092 8.591235
3.34728 100.3762 17.54951 0.9701145 2.927375 0.5923613 2.512447 -20.31789 3.96944 -0 0.6906587 -0 -5.738411 -7.947304 3.585453 -7.07069 11.50672 -18.29497 -0 11.68753 -0 2.939976 -19.76214 19.98458 -3.716649 -3.838723 4.907474 3.189583 8.306681 -7.654912 1.293265 21.32728 7.231786 3.753911 -24.10883 8.853307 5.385646 -17.67498 11.26621 87.28986 35.45245 -21.56486 -0 0 13.30184 -8.485937 9.225212 4.988863 7.306477 -20.82737 -1.219717 -92.42375 28.64898 18.86002 0 0 -20.58751 4.236041 16.4496 8.639405
3.798683 99.81763 21.50555 0.7446701 3.505883 1.043963 2.667729 -19.41739 3.351851 0 -2.400782 0 -6.147095 -7.286542 4.090896 -6.763538 11.4592 -17.14732 -0 15.12338 -0 1.297444 -18.8383 18.03099 -3.236688 -4.010883 4.704867 3.167501 8.18292 -7.843223 1.160769 21.24021 7.297103 3.741924 -23.99448 8.708293 5.292273 -17.22273 11.18044 87.77692 35.39751 -21.9993 -0 0 12.62742 -8.688914 9.52627 5.125496 7.052239 -20.83489 -1.335165 -92.13497 28.40431 18.64025 0 0 -20.25985 4.144589 16.1075 8.795278
4.231704 99.51752 25.96147 0.4554127 3.845569 1.532577 2.91134 -17.48018 2.952252 0 -3.996453 0 -6.658485 -7.141745 4.377007 -6.372077 10.92521 -16.01037 -0 19.96237 -0 -0.5298984 -16.85278 15.95881 -2.584315 -4.207966 4.558258 3.102683 8.118195 -7.98523 0.9700263 21.19556 7.34697 3.685893 -23.80698 8.490852 5.243878 -16.76357 11.17943 88.25624 35.36255 -22.36544 -0 0 11.95942 -8.955588 9.871307 5.310544 6.608077 -20.71299 -1.506798 -91.97861 28.11385 18.66707 0 0 -19.59996 3.992664 15.7284 9.034093
4.654098 99.5513 30.8548 0.1820141 3.853854 1.881595 3.174673 -14.49679 2.745083 0 -4.474486 0 -7.209731 -7.513337 4.51312 -5.956386 9.659805 -14.9125 -0 26.25031 -0 -2.334799 -13.85127 13.98099 -1.844335 -4.372719 4.573047 2.992773 8.14558 -7.996627 0.7420456 21.2164 7.359342 3.594088 -23.52743 8.192749 5.237247 -16.33659 11.29277 88.64959 35.35519 -22.57152 -0 0 11.35491 -9.316313 10.25205 5.559019 6.033826 -20.48349 -1.700788 -91.94804 27.77264 18.90603 0 0 -18.72834 3.800459 15.32126 9.317436
5.076811 99.91919 36.05598 0.0704584 3.441459 1.976054 3.315854 -10.49912 2.628257 0 -4.536953 0 -7.691018 -8.407105 4.609221 -5.59669 7.350471 -13.85071 -0 33.70088 -0 -3.837278 -10.28561 12.3741 -1.204146 -4.420784 4.870402 2.828082 8.294908 -7.796431 0.5162504 21.3469 7.306249 3.490348 -23.1282 7.810537 5.277896 -16.01538 11.52915 88.83898 35.38558 -22.48346 -0 0 10.89985 -9.818926 10.65473 5.894986 5.419539 -20.21564 -1.867629 -91.98372 27.37928 19.26786 0 0 -17.83068 3.601041 14.90137 9.587654
